<?xml version="1.0" standalone="no"?><!DOCTYPE svg PUBLIC "-//W3C//DTD SVG 1.1//EN" "http://www.w3.org/Graphics/SVG/1.1/DTD/svg11.dtd"><svg t="1692250591707" class="icon" viewBox="0 0 1024 1024" version="1.1" xmlns="http://www.w3.org/2000/svg" p-id="20112" data-spm-anchor-id="a313x.search_index.0.i60.18633a81232XzL" xmlns:xlink="http://www.w3.org/1999/xlink" width="128" height="128"><path d="M484.54144 692.84608s-11.85024-273.4208 61.78816-326.9376c73.6384-53.5168 292.01152 41.07008 308.18048 179.24864 16.1664 138.176-342.04672 290.24256-369.96864 147.68896z" fill="#e89abe" p-id="20113" data-spm-anchor-id="a313x.search_index.0.i50.18633a81232XzL" class=""></path><path d="M441.97632 732.16s142.93504 11.10016 197.11488 13.60896c54.17984 2.5088 191.7184-8.4608 54.41536 32.67584-157.2096 47.104-237.0048-12.77696-258.30656-29.39904l6.77632-16.88576z" fill="#e3ad78" p-id="20114" data-spm-anchor-id="a313x.search_index.0.i53.18633a81232XzL" class="selected"></path><path d="M415.14496 723.12832c13.07648-5.29152 35.24352 7.92064 45.16608 17.73056 17.43872 17.2032-9.96608 23.6544-25.3184 28.06784-13.09952 4.71552-27.7504-1.09056-33.64608-13.33248-5.45792-12.6464 0.7168-27.16928 13.7984-32.46592z" fill="#e3ad78" p-id="20115" data-spm-anchor-id="a313x.search_index.0.i58.18633a81232XzL" class="selected"></path><path d="M456.90112 704S194.92608 200.84224 293.56288 182.9376c56.27136-10.2144 67.95264 49.0752 95.01184 63.0784 27.0592 14.00832 69.28384 38.48192 98.41152 54.8096 29.12512 16.32768 23.13216 325.2864-30.08512 403.1744z" fill="#e89abe" p-id="20116" data-spm-anchor-id="a313x.search_index.0.i52.18633a81232XzL" class=""></path><path d="M491.61472 750.08S84.60288 577.0624 119.93344 292.4032C131.64032 198.144 296.192 314.31936 328.59136 334.86336c32.40192 20.544 218.20416 41.2032 218.48832 147.904 0.2816 106.7008 55.2576 222.96832-12.8 260.17792-11.53792 6.2976-42.66496 7.13472-42.66496 7.13472z" fill="#e89abe" p-id="20117" data-spm-anchor-id="a313x.search_index.0.i51.18633a81232XzL" class=""></path><path d="M491.52 734.72s-287.37792-165.11488-163.60704-242.83904C451.6864 414.15936 487.6928 704.77824 491.52 734.72z" fill="#FFC938" p-id="20118"></path><path d="M527.48032 745.13152s-8.52992-192.75776 118.45376-241.39008c126.98368-48.62976 306.87744 54.81216 256.8576 187.34848 0.00768 0-242.7392 108.23168-375.31136 54.0416z" fill="#e89abe" p-id="20119" data-spm-anchor-id="a313x.search_index.0.i46.18633a81232XzL" class=""></path><path d="M542.72 727.30624s124.62592-217.05728 193.57696-135.56224c68.94848 81.49504-96.5248 169.31072-193.57696 135.56224z" fill="#FFC938" p-id="20120" data-spm-anchor-id="a313x.search_index.0.i55.18633a81232XzL" class=""></path><path d="M199.68 341.8112s78.69952-21.57568 64.9472 14.1824C250.87232 391.7568 216.05376 392.27392 199.68 341.8112zM320 385.3312s78.69952-21.57568 64.9472 14.1824C371.19232 435.2768 336.37376 435.79392 320 385.3312zM435.2 441.6512s78.69952-21.57568 64.9472 14.1824c-13.75488 35.7632-48.57344 36.27776-64.9472-14.1824z" fill="#FD927A" p-id="20121"></path><path d="M140.8 632.32m-17.92 0a17.92 17.92 0 1 0 35.84 0 17.92 17.92 0 1 0-35.84 0Z" fill="#FED692" p-id="20122"></path><path d="M276.48 640m-17.92 0a17.92 17.92 0 1 0 35.84 0 17.92 17.92 0 1 0-35.84 0Z" fill="#FED692" p-id="20123"></path></svg>